<svg t="1582964480747" class="icon" viewBox="0 0 1024 1024" version="1.1" xmlns="http://www.w3.org/2000/svg" p-id="2692" width="64" height="64"><path d="M895.965174 223.723708v315.363397c0 17.918375-14.3347 31.741121-31.741121 31.741121-17.401302 0-31.741121-14.3347-31.741121-31.741121V223.723708c0-17.918375-14.3347-31.741121-31.736001-31.741121H224.282096c-17.406421 0-31.741121 14.3347-31.741121 31.741121v639.941958c0 17.401302 14.3347 31.741121 31.741121 31.741121H471.043715c17.918375 0 31.741121 14.3347 31.741121 31.736001 0 17.406421-14.3347 31.741121-31.741121 31.741121H224.282096c-52.731217 0-96.24727-42.99898-96.24727-96.24727v-639.941957C128.034826 170.992491 171.038925 127.988391 224.282096 127.988391h575.947762c52.731217 0 95.735317 43.0041 95.735316 95.735317z m-284.134229 291.301579c0 17.918375-16.382514 31.741121-36.860656 31.741121h-281.574462c-20.478143 0-36.860657-14.3347-36.860656-31.741121 0-17.401302 16.382514-31.741121 36.860656-31.741121h281.574462c20.478143 0 36.860657 14.3347 36.860656 31.741121z m-150.002394 184.303284c0 17.406421-16.382514 31.741121-36.860657 31.741121H292.883874c-20.478143 0-36.860657-14.3347-36.860657-31.741121 0-17.918375 16.382514-31.736002 36.860657-31.736002H424.967894c20.478143-0.00512 36.860657 14.32958 36.860657 31.736002z m242.154036-360.927264c0 17.918375-14.3347 31.741121-31.741121 31.741121h-383.965174c-17.918375 0-31.741121-14.3347-31.741121-31.741121s14.3347-31.741121 31.741121-31.741121h383.965174c17.406421 0 31.741121 14.3347 31.741121 31.741121z" p-id="2693"></path><path d="M952.827857 752.832838c-2.518812-9.409707-11.293696-15.686257-21.338225-15.056554-12.547982 0.634822-24.461141-5.646848-30.737692-16.31596s-5.651967-24.466261 1.244047-35.130254c5.651967-8.16054 4.392562-18.824533-2.503453-26.35025-28.239359-29.493645-63.999315-50.191928-103.52213-59.606754-9.414826-2.508572-19.464475 2.503453-23.851917 11.293696-5.646848 11.288576-16.935424 18.19483-29.483406 18.19483s-23.846797-6.906254-29.493645-18.19483c-4.392562-8.790243-14.431971-13.177685-23.846797-11.293696a220.831171 220.831171 0 0 0-103.52725 59.606754c-6.911373 6.906254-8.15542 18.19483-2.503453 26.35025 6.901134 10.663993 7.525717 23.836558 1.254287 34.51079-6.28167 10.663993-18.205069 17.570246-30.753051 16.305721-10.02917-0.619464-18.819413 5.657087-21.327986 15.061674-5.646848 19.449116-8.15542 39.533054-8.15542 59.611873 0 20.06858 2.508572 40.787341 8.15542 59.611873 2.508572 9.404587 11.913159 15.681138 21.327986 15.056554 12.547982-0.629703 24.47138 5.641728 30.753051 16.310841 6.271431 10.663993 5.646848 24.466261-1.254287 34.51591-5.651967 8.145181-4.402801 19.438877 2.503453 26.34513 28.239359 29.493645 64.009554 50.191928 103.52725 59.611873 9.414826 2.508572 19.454236-2.508572 23.846797-11.298815 5.646848-11.288576 16.945663-18.18971 29.493645-18.18971s23.836558 6.901134 29.483406 18.18971c3.767978 7.535956 11.298815 11.928518 18.824533 11.928518 1.889109 0 3.138275 0 5.027384-0.629703a220.84141 220.84141 0 0 0 103.52213-59.611873c6.901134-6.906254 7.535956-18.199949 2.503453-26.34513-6.901134-10.674232-7.520598-23.851917-1.244047-34.51591 6.276551-10.669112 18.18971-17.575366 30.737692-16.310841 10.044529 0.624583 18.819413-5.651967 21.338225-15.056554 5.636609-19.454236 8.150301-39.543293 8.150301-59.611873 0-19.464475-2.513692-39.533054-8.150301-58.98729z m-55.214192 90.979268c-19.459355 3.757739-36.394779 15.056554-46.429069 32.626801-10.044529 16.940543-11.928518 37.643946-5.022265 56.468478-15.681138 13.807388-33.251384 23.836558-52.705619 30.742812a66.518127 66.518127 0 0 0-50.816511-23.841678h-0.634822c-20.06858 0-38.273649 8.785123-50.826751 23.841678-19.438877-6.906254-37.643946-16.935424-53.325083-30.742812 6.901134-18.829652 5.012025-38.903351-5.012025-56.468478-10.044529-17.570246-26.985072-28.869062-46.439308-32.626801-3.757739-20.078819-3.757739-40.782221 0-61.485623 19.454236-3.773098 36.394779-15.066793 46.439308-32.626801 10.02917-16.945663 11.913159-37.649065 5.012025-56.468478 15.681138-13.807388 33.251384-23.851917 52.710739-30.747931 12.542862 15.061674 31.372515 23.841678 51.441095 23.841677 20.083938 0 38.273649-8.780004 51.451333-23.841677 19.454236 6.896015 37.649065 16.940543 53.335322 30.747931-6.906254 18.819413-5.017145 38.898232 5.012026 56.468478 10.039409 17.560007 26.985072 28.853703 46.429069 32.626801a156.176555 156.176555 0 0 1-0.619464 61.485623z" p-id="2694"></path><path d="M742.005379 717.067762c-52.70562 0-95.996413 43.295913-95.996414 95.996413 0 52.70562 43.290794 96.001533 95.996414 96.001533 52.710739 0 96.001533-43.295913 96.001532-96.001533 0-52.7005-42.67133-95.996413-96.001532-95.996413z m0 139.916909c-24.461141 0-43.915377-20.06858-43.915377-43.915376 0-24.461141 20.073699-43.920496 43.915377-43.920497 24.47138 0 43.920496 20.078819 43.920496 43.920497 0.634822 24.4765-19.449116 43.915377-43.920496 43.915376z" p-id="2695"></path></svg>