<?xml version="1.0" standalone="no"?><!DOCTYPE svg PUBLIC "-//W3C//DTD SVG 1.1//EN" "http://www.w3.org/Graphics/SVG/1.1/DTD/svg11.dtd"><svg t="1583391581258" class="icon" viewBox="0 0 1024 1024" version="1.1" xmlns="http://www.w3.org/2000/svg" p-id="13120" xmlns:xlink="http://www.w3.org/1999/xlink" width="64" height="64"><defs><style type="text/css"></style></defs><path d="M904.940941 313.124813H279.816928c-23.22854 0-42.159288-19.033077-42.159288-42.159289 0-23.22854 19.033077-42.159288 42.159288-42.159288h625.124013c23.22854 0 42.159288 19.033077 42.159289 42.159288 0 23.22854-18.930748 42.159288-42.159289 42.159289z" p-id="13121"></path><path d="M122.947537 270.965524m-47.582692 0a47.582692 47.582692 0 1 0 95.165384 0 47.582692 47.582692 0 1 0-95.165384 0Z" p-id="13122"></path><path d="M904.940941 554.005796H279.816928c-23.22854 0-42.159288-19.033077-42.159288-42.159289 0-23.22854 19.033077-42.159288 42.159288-42.159288h625.124013c23.22854 0 42.159288 19.033077 42.159289 42.159288 0 23.22854-18.930748 42.159288-42.159289 42.159289z" p-id="13123"></path><path d="M122.947537 511.846507m-47.582692 0a47.582692 47.582692 0 1 0 95.165384 0 47.582692 47.582692 0 1 0-95.165384 0Z" p-id="13124"></path><path d="M901.87109 794.989108H276.747077c-23.22854 0-42.159288-19.033077-42.159288-42.159289 0-23.22854 19.033077-42.159288 42.159288-42.159288h625.124013c23.22854 0 42.159288 19.033077 42.159289 42.159288s-18.930748 42.159288-42.159289 42.159289z" p-id="13125"></path><path d="M119.877686 752.727491m-47.582692 0a47.582692 47.582692 0 1 0 95.165384 0 47.582692 47.582692 0 1 0-95.165384 0Z" p-id="13126"></path></svg>