<?xml version="1.0" standalone="no"?><!DOCTYPE svg PUBLIC "-//W3C//DTD SVG 1.1//EN" "http://www.w3.org/Graphics/SVG/1.1/DTD/svg11.dtd"><svg t="1586248099213" class="icon" viewBox="0 0 1024 1024" version="1.1" xmlns="http://www.w3.org/2000/svg" p-id="9297" xmlns:xlink="http://www.w3.org/1999/xlink" width="64" height="64"><defs><style type="text/css"></style></defs><path d="M363.6721 501.667439c0 29.286334-23.765499 52.961826-53.094405 52.961826-29.286334 0-53.066429-23.675492-53.066429-52.961826 0-29.276604 23.77523-53.051833 53.066429-53.051834 29.328905-0.004865 53.094404 23.770364 53.094405 53.051834m0 0z m608.050857-29.376342c0-220.931932-206.33985-400.699037-460.030684-400.699036C257.991709 71.592061 51.650643 251.359166 51.650643 472.291097c0 131.247246 73.933459 254.174925 197.930276 329.077785V927.680338c0 8.999484 4.932141 17.204718 12.810187 21.357204 3.624607 2.028807 7.435309 3.006721 11.545223 3.00672 4.736315 0 9.374108-1.353754 13.436587-4.061262l58.278321-38.465833a18.6351 18.6351 0 0 0 2.798732-2.133409l65.913105-43.878416c32.864721 6.191023 65.623623 9.383839 97.419206 9.383838 253.600827-0.094872 459.940676-179.767105 459.940677-400.598083m-685.804749 293.905722C169.660778 700.671717 100.31281 590.776809 100.31281 472.196225c0-194.068489 184.545991-351.989433 411.379463-351.989433 226.832256 0 411.378247 157.920945 411.378247 351.989433 0 194.062407-184.598292 351.983352-411.374598 351.983352-31.70436 0-64.559351-3.477433-97.6126-10.338643-6.282246-1.448626-12.952495-0.094872-18.458734 3.578387l-77.126276 51.412246c-1.064272 0.575315-2.608987 1.933934-2.608987 1.933934l-17.589072 11.597525v-94.995099c-0.004865-8.804875-4.793481-16.828878-12.382045-21.171108m0 0z m287.719564-279.414593c0 29.286334-23.770364 53.161301-53.156436 53.161301-29.276604 0-53.051833-23.874967-53.051833-53.161301 0-29.281469 23.77523-52.966692 53.051833-52.966692 29.381207 0.00973 53.156436 23.690088 53.156436 52.966692m0 0z m207.509941 0c0 29.286334-23.780095 53.161301-53.066429 53.161301-29.281469 0-53.056699-23.874967-53.056699-53.161301 0-29.281469 23.77523-52.966692 53.056699-52.966692 29.286334 0.00973 53.066429 23.690088 53.066429 52.966692m0 0z m0 0" p-id="9298" fill="#2c2c2c"></path></svg>