<?xml version="1.0" standalone="no"?><!DOCTYPE svg PUBLIC "-//W3C//DTD SVG 1.1//EN" "http://www.w3.org/Graphics/SVG/1.1/DTD/svg11.dtd"><svg t="1583313469581" class="icon" viewBox="0 0 1024 1024" version="1.1" xmlns="http://www.w3.org/2000/svg" p-id="2831" xmlns:xlink="http://www.w3.org/1999/xlink" width="64" height="64"><defs><style type="text/css"></style></defs><path d="M897.531332 500.202124c-50.860111-116.830339-103.438584-180.202276-122.262464-230.825624-20.016237-53.811105-0.280698-99.639392-0.280698-99.639393-41.749617-8.350167-72.778995 31.494361-96.202667 71.921035-14.498683 25.01389-33.436062 176.626423-63.075374 213.848252-5.046469 6.337682-15.077166 4.7914-17.889031-2.810645-101.254018-273.420998-46.969387-419.763723-46.969387-419.763723-159.278041 60.112174-198.908995 215.614211-206.480529 239.690812-14.630489 46.501963-8.44414 223.33952-8.444141 223.339519-0.629741 12.089558-17.064022 15.207752-22.076319 4.187288 0 0-41.969294-103.469095-46.855887-160.250721-3.998122-46.475114-4.338621-36.7959-4.338621-36.7959C190.511841 369.817713 110.41638 520.892037 110.41638 622.374276c0 203.807792 179.795874 369.024435 401.590332 369.024434 221.788356 0 401.58545-165.216643 401.585451-369.024434 0-43.476522 0-85.260311-16.060831-122.172152z m0 0" fill="" p-id="2832"></path></svg>