<?xml version="1.0" standalone="no"?><!DOCTYPE svg PUBLIC "-//W3C//DTD SVG 1.1//EN" "http://www.w3.org/Graphics/SVG/1.1/DTD/svg11.dtd"><svg t="1586847500620" class="icon" viewBox="0 0 1024 1024" version="1.1" xmlns="http://www.w3.org/2000/svg" p-id="4601" xmlns:xlink="http://www.w3.org/1999/xlink" width="64" height="64"><defs><style type="text/css"></style></defs><path d="M394.666452 1012.648229c-59.743086-32.943543-102.517029-90.989714-104.916114-159.217372-3.569371-127.502629 91.691886-189.995886 147.748571-275.485257 80.515657-122.88 58.514286-198.948571 58.514286-198.948571s67.1744 35.108571 106.261943 166.122057a283.0336 283.0336 0 0 1 11.000686 113.8688c-5.851429 92.16-48.800914 175.191771-48.800915 175.191771S638.905081 819.2 659.619138 692.926171c34.347886 33.002057 66.004114 80.749714 69.632 130.896458 5.851429 86.484114-48.7424 166.063543-131.832686 200.177371 143.828114-30.72 246.637714-144.471771 282.038857-227.562057 45.114514-104.565029 32.943543-197.895314 25.570743-278.762057a388.885943 388.885943 0 0 1 31.714743-192.277943s-79.345371 21.650286-137.976686 111.177143c-26.799543 40.96-37.800229 101.229714-37.800228 101.229714s5.851429-53.365029-31.773257-151.259429C691.567938 291.2256 657.161538 257.462857 636.330452 186.660571 609.647938 92.16 669.273995 0 669.273995 0S432.642224 40.96 325.092966 233.237943C229.948738 403.748571 269.036281 506.382629 269.036281 506.382629a263.314286 263.314286 0 0 1-61.088915-84.260572A208.661943 208.661943 0 0 1 191.855938 328.850286s-168.228571 172.909714-86.367086 390.290285c54.8864 152.137143 161.031314 252.547657 289.1776 293.507658" fill="#FF8900" p-id="4602"></path></svg>