<?xml version="1.0" standalone="no"?><!DOCTYPE svg PUBLIC "-//W3C//DTD SVG 1.1//EN" "http://www.w3.org/Graphics/SVG/1.1/DTD/svg11.dtd"><svg t="1584515576596" class="icon" viewBox="0 0 1024 1024" version="1.1" xmlns="http://www.w3.org/2000/svg" p-id="6121" xmlns:xlink="http://www.w3.org/1999/xlink" width="64" height="64"><defs><style type="text/css"></style></defs><path d="M840.2378173 428.69679969L617.20151604 428.69679969c86.42396437-319.18519219-59.5468275-335.48741906-59.5468275-335.48741907-61.86845344 0-49.04290875 48.92107124-53.72165625 57.07650188 0 156.0957675-165.79671 278.41091719-165.79671 278.41091719l1e-8 442.66115531c0 43.694535 59.5468275 59.43170531 82.90602937 59.43170531l335.11135406 0c31.53861656 0 57.22136438-82.7103225 57.22136438-82.7103225 82.90698937-281.91158438 82.90698937-365.79135375 82.90698936-365.79135375C896.28301855 424.04299531 840.2378173 428.69679969 840.2378173 428.69679969L840.2378173 428.69679969 840.2378173 428.69679969zM840.2378173 428.69679969" fill="#2c2c2c" p-id="6122"></path><path d="M246.60861823 428.84358031L113.05564667 428.84358031c-27.58129969 0-28.00629187 27.0901125-28.00629187 27.0901125l27.58129968 446.44003406c0 28.41497438 28.46390157 28.41497437 28.46390156 28.41497438L256.68562574 930.78870125c24.08063345 0 23.86765781-18.79653563 23.86765781-18.79653563L280.55328355 462.69806656C280.55328354 428.40995375 246.60861823 428.84358031 246.60861823 428.84358031L246.60861823 428.84358031 246.60861823 428.84358031zM246.60861823 428.84358031" fill="#2c2c2c" p-id="6123"></path></svg>