<?xml version="1.0" standalone="no"?><!DOCTYPE svg PUBLIC "-//W3C//DTD SVG 1.1//EN" "http://www.w3.org/Graphics/SVG/1.1/DTD/svg11.dtd"><svg t="1584515459155" class="icon" viewBox="0 0 1024 1024" version="1.1" xmlns="http://www.w3.org/2000/svg" p-id="2043" width="64" height="64" xmlns:xlink="http://www.w3.org/1999/xlink"><defs><style type="text/css"></style></defs><path d="M1014.073796 419.462164c-3.202001-43.547217-13.448405-85.173233-30.739212-124.878049-44.187617-100.542839-117.833646-173.548468-214.534084-224.140087-65.320826-34.581614-135.124453-53.793621-209.410881-59.557224-7.044403-0.6404-61.478424-1.921201-79.409632-1.2808-17.931207 1.280801-44.828018 3.842402-67.242026 7.684803-53.793621 8.965604-105.025641 25.61601-153.69606 50.59162-96.700438 50.59162-171.627267 123.597248-217.095685 225.420888-19.212008 43.547217-28.818011 89.656035-32.660412 136.405253-1.921201 26.896811 1.280801 53.793621 5.123202 80.690431 7.684803 49.310819 24.97561 96.060038 50.591619 138.966855 33.300813 56.995622 78.128831 103.744841 132.562852 141.528455 4.482802 3.202001 5.763602 6.404003 5.763602 11.527204v211.972483c5.123202-3.202001 8.325203-5.123202 12.167605-7.044403l199.804878-122.956848c3.202001-1.921201 7.044403-2.561601 10.886804-2.561601 22.414009 1.921201 44.828018 5.123202 67.242027 6.404003 40.345216 1.921201 80.050031-1.280801 119.754847-8.325203 91.577236-16.650407 174.188868-52.512821 245.913696-112.070044 58.276423-48.030019 102.46404-106.946842 130.641651-178.03127 17.931207-46.108818 26.896811-93.498437 26.89681-142.809255-0.6404-8.325203-1.921201-17.931207-2.561601-27.537211z m-70.444027 66.601626c-5.123202 61.478424-30.098812 115.912445-65.961226 164.582864-42.266417 56.995622-96.700438 99.262039-161.380863 128.08005-33.941213 15.369606-69.163227 28.818011-106.306442 35.222014-51.23202 8.965604-103.10444 11.527205-154.97686 5.123202-7.684803-0.6404-15.369606-1.921201-23.054409-3.202001-14.088806-1.280801-26.896811 1.280801-39.064416 8.325203-40.345216 24.33521-80.690432 49.310819-120.395247 74.286429-1.280801 0.6404-2.561601 1.280801-5.123202 3.202001V890.156348v-97.340838c0-14.729206-2.561601-29.458412-12.808005-40.985616-4.482802-5.123202-9.606004-9.606004-14.729205-13.448406-39.064415-28.177611-73.005629-61.478424-99.902439-101.183239-23.054409-33.941213-40.985616-71.084428-50.59162-111.429644-8.965604-36.502814-9.606004-73.646029-6.404003-110.789243 5.123202-62.759225 30.739212-117.833646 67.882427-167.144465 43.547217-58.276423 100.542839-99.262039 166.504065-129.360851 76.84803-34.581614 157.538462-44.187617 240.790494-38.424015 87.094434 5.763602 165.863665 35.862414 236.307692 87.094434 71.084428 51.23202 120.395247 119.114447 143.449656 204.92808 8.965604 37.143215 8.965604 75.56723 5.763603 113.991245z" p-id="2044"></path></svg>