<?xml version="1.0" standalone="no"?><!DOCTYPE svg PUBLIC "-//W3C//DTD SVG 1.1//EN" "http://www.w3.org/Graphics/SVG/1.1/DTD/svg11.dtd"><svg t="1583302716175" class="icon" viewBox="0 0 1024 1024" version="1.1" xmlns="http://www.w3.org/2000/svg" p-id="5382" xmlns:xlink="http://www.w3.org/1999/xlink" width="64" height="64"><defs><style type="text/css"></style></defs><path d="M964.5056 921.0368l-233.472-250.624a379.2384 379.2384 0 0 0 83.6608-237.824C814.6944 222.3104 643.4304 51.2 432.9472 51.2 222.464 51.2 51.2 222.3104 51.2 432.64c0 210.2784 171.2128 381.3376 381.7472 381.3376 98.304 0 188.0576-37.376 255.7952-98.56l230.656 247.552a30.72 30.72 0 0 0 50.8416-8.704 30.72 30.72 0 0 0-5.7344-33.28zM432.9472 752.384c-176.4864 0-320.1024-143.4112-320.1024-319.744S256.512 112.7936 432.9472 112.7936c176.4864 0 320.1024 143.4624 320.1024 319.8464 0 176.2816-143.616 319.744-320.1024 319.744z" fill="#333333" p-id="5383"></path></svg>