<?xml version="1.0" standalone="no"?><!DOCTYPE svg PUBLIC "-//W3C//DTD SVG 1.1//EN" "http://www.w3.org/Graphics/SVG/1.1/DTD/svg11.dtd"><svg t="1586942341860" class="icon" viewBox="0 0 1024 1024" version="1.1" xmlns="http://www.w3.org/2000/svg" p-id="16347" xmlns:xlink="http://www.w3.org/1999/xlink" width="64" height="64"><defs><style type="text/css"></style></defs><path d="M891.392 512c0-39.76192 24.14592-74.72128 61.50656-89.0624l19.12832-7.34208-5.05856-19.85024a466.83136 466.83136 0 0 0-50.9952-123.21792l-10.45504-17.6128-18.7136 8.32a95.93344 95.93344 0 0 1-39.2192 8.32512 94.32576 94.32576 0 0 1-67.24096-27.904c-28.11904-28.11904-35.76832-69.89824-19.4816-106.43456l8.35584-18.74944-17.664-10.45504a469.35552 469.35552 0 0 0-123.2896-50.98496l-19.8144-5.04832-7.36256 19.07712c-14.43328 37.39136-49.40288 61.55264-89.07776 61.55264-39.7568 0-74.71616-24.14592-89.0624-61.5168l-7.34208-19.11808-19.85024 5.05344A466.5856 466.5856 0 0 0 272.5376 108.032l-17.6128 10.45504 8.32 18.7136c16.26624 36.56704 8.61696 78.35648-19.47648 106.45504-17.9456 17.95072-41.86624 27.83744-67.34848 27.83744-13.58848 0-26.75712-2.78016-39.13216-8.2688l-18.66752-8.27904-10.46016 17.54624a464.13824 464.13824 0 0 0-51.11296 123.25376l-5.0432 19.8144 19.07712 7.36256c37.376 14.43328 61.53216 49.39776 61.53216 89.07776 0 39.7568-24.14592 74.71616-61.5168 89.06752l-19.1232 7.3472 5.05344 19.85024a466.9952 466.9952 0 0 0 50.9952 123.2128l10.45504 17.61792 18.71872-8.33024a95.87712 95.87712 0 0 1 39.21408-8.32512c25.41056 0 49.28 9.90208 67.23584 27.89888 28.12416 28.12416 35.76832 69.90336 19.48672 106.43968l-8.35584 18.74944 17.664 10.45504a469.02784 469.02784 0 0 0 123.2896 50.97984l19.8144 5.04832 7.36256-19.07712c14.44864-37.38624 49.41312-61.5424 89.09312-61.5424 39.76192 0 74.72128 24.14592 89.06752 61.51168l7.3472 19.1232 19.85024-5.05856a467.1744 467.1744 0 0 0 123.21792-50.99008l17.61792-10.46016-8.33024-18.71872c-16.26624-36.56704-8.6272-78.35136 19.47648-106.45504 17.9456-17.95072 41.86112-27.83744 67.33824-27.83744 13.58848 0 26.76224 2.78528 39.13728 8.2688l18.67264 8.28416 10.45504-17.55136a464.256 464.256 0 0 0 51.11296-123.24864l5.04832-19.85024-19.11808-7.3472c-37.36576-14.34112-61.50144-49.3056-61.50144-89.0624z m-5.85728 199.54176a142.01344 142.01344 0 0 0-37.94944-5.11488c-37.79584 0-73.28256 14.67904-99.93216 41.33376-36.6592 36.66944-49.87904 88.97536-36.16256 137.87136a421.56544 421.56544 0 0 1-76.3904 31.61088c-24.87296-44.288-71.22432-71.93088-123.10016-71.93088-51.78368 0-98.12992 27.648-123.06944 71.936a422.54336 422.54336 0 0 1-76.55936-31.66208c13.31712-48.51712-0.06656-101.76512-36.11136-137.8048-26.63936-26.71104-62.09536-41.4208-99.84-41.4208-12.9792 0-25.70752 1.72544-38.03648 5.15072a421.02272 421.02272 0 0 1-31.62624-76.41088c44.288-24.87296 71.936-71.22432 71.936-123.10016 0-51.7888-27.648-98.13504-71.936-123.06944a417.90976 417.90976 0 0 1 31.70304-76.4672c12.29312 3.39968 24.99584 5.11488 37.94944 5.11488 37.79072 0 73.28256-14.67904 99.93216-41.33376 36.66432-36.66944 49.88928-88.97024 36.1728-137.87136a420.63872 420.63872 0 0 1 76.38528-31.61088c24.87296 44.288 71.22432 71.936 123.09504 71.936 51.7888 0 98.12992-27.64288 123.06944-71.94112a422.93248 422.93248 0 0 1 76.55936 31.6672c-13.32224 48.512 0.06656 101.76 36.10624 137.8048 26.64448 26.71104 62.1056 41.4208 99.84512 41.4208a141.7728 141.7728 0 0 0 38.0416-5.15072 421.34528 421.34528 0 0 1 31.62112 76.41088C872.94976 413.7728 845.312 460.11904 845.312 512c0 51.87584 27.63776 98.2272 71.92576 123.10016a418.62656 418.62656 0 0 1-31.70304 76.4416z" fill="#333333" p-id="16348"></path><path d="M512 370.18112c-78.19776 0-141.81888 63.62112-141.81888 141.81888 0 78.20288 63.62112 141.824 141.81888 141.824 78.20288 0 141.824-63.62112 141.824-141.824 0-78.19776-63.62112-141.81888-141.824-141.81888z m0 237.56288c-52.79232 0-95.73888-42.95168-95.73888-95.744S459.2128 416.26112 512 416.26112c52.79744 0 95.744 42.95168 95.744 95.73888 0 52.79744-42.94656 95.744-95.744 95.744z" fill="#333333" p-id="16349"></path></svg>