<?xml version="1.0" standalone="no"?><!DOCTYPE svg PUBLIC "-//W3C//DTD SVG 1.1//EN" "http://www.w3.org/Graphics/SVG/1.1/DTD/svg11.dtd"><svg t="1584541742988" class="icon" viewBox="0 0 1024 1024" version="1.1" xmlns="http://www.w3.org/2000/svg" p-id="6647" xmlns:xlink="http://www.w3.org/1999/xlink" width="64" height="64"><defs><style type="text/css"></style></defs><path d="M824.32 0H202.93c-50.399 0-65.046 17.096-65.046 67.228V719.96c0 6.411 2.003 12.644 5.164 18.298 1.38 9.083 6.189 17.542 14.158 23.285l336.273 243.935c12.377 9.038 29.028 9.038 41.45 0L871.2 761.544c7.702-5.565 12.333-13.668 13.935-22.216 2.494-4.808 4.007-10.195 4.007-15.939l1.292-657.541C890.524 18.165 872.225 0 824.32 0zM358.4 460.4s-61.396-69.232-98.26-111.127c-12.956-15.36-4.54-36.953 21.104-41.004 52.446-9.35 133.654-27.47 133.654-27.47s41.272-74.396 69.365-121.945c17.541-32.991 21.86-36.508 31.12-36.508 9.216 0 11.443 1.246 31.61 36.508 27.871 47.504 68.609 122.078 68.609 122.078s80.228 14.96 132.051 24.309c25.378 4.052 33.703 32.145 20.837 47.371-36.42 42.029-93.941 108.277-93.941 108.277s9.26 76.221 15.226 128.267c1.781 20.08-17.942 34.638-33.302 34.638-5.031 0-10.507-1.157-16.117-3.784-43.453-20.703-109.702-52.848-124.527-60.016-15.093 7.168-81.965 38.645-125.997 59.392-5.699 2.583-11.175 3.74-16.25 3.74-15.627 0-36.82-14.603-34.905-34.638C344.643 536.531 358.4 460.4 358.4 460.4z m87.44-113.887" p-id="6648"></path></svg>