<?xml version="1.0" standalone="no"?><!DOCTYPE svg PUBLIC "-//W3C//DTD SVG 1.1//EN" "http://www.w3.org/Graphics/SVG/1.1/DTD/svg11.dtd"><svg t="1586847811131" class="icon" viewBox="0 0 1024 1024" version="1.1" xmlns="http://www.w3.org/2000/svg" p-id="15109" xmlns:xlink="http://www.w3.org/1999/xlink" width="64" height="64"><defs><style type="text/css"></style></defs><path d="M405.974 459.568s-10.766 59.416-15.437 100.041c-1.523 15.642 15.031 27.018 27.216 27.018 3.963 0 8.227-0.912 12.696-2.945 34.332-16.148 86.531-40.725 98.315-46.313 11.58 5.588 63.274 30.672 97.195 46.818 4.369 2.033 8.633 2.946 12.595 2.946 11.987 0 27.42-11.37 26.002-27.013-4.673-40.625-11.882-100.145-11.882-100.145s44.89-51.694 73.325-84.5c10.057-11.881 3.556-33.822-16.25-36.97-40.423-7.31-103.087-18.989-103.087-18.989s-31.788-58.201-53.524-95.27c-15.74-27.525-17.467-28.542-24.676-28.542-7.216 0-10.564 2.744-24.275 28.541-21.94 37.07-54.135 95.167-54.135 95.167s-63.378 14.118-104.305 21.429c-20.011 3.148-26.612 20.01-16.455 31.997 28.743 32.7 76.682 86.73 76.682 86.73z" p-id="15110" fill="#1afa29"></path><path d="M770.962 635.291c0 14.12-8.937 29.025-21.357 33.993l-183 141.596s-20.323 18.217-38.09 18.217c-12.872 0-34.778-16.561-34.778-16.561l-187.14-139.113c-15.374-9.53-21.548-18.485-21.548-30.267V187.134c0-19.685 15.957-35.642 35.643-35.642H735.32c19.685 0 35.642 15.956 35.642 35.642v448.157z m-21.009-532.814H307.046c-39.37 0-71.283 31.914-71.283 71.28v498.958c0 17.564 18.241 28.437 18.241 28.437l249.714 181.356c11.07 8.059 14.577 11.71 24.16 11.034 9.994 0.057 13.9-3.601 26.213-12.719 0.582-0.43 249.74-180.556 249.74-180.556s15.308-7.452 17.406-27.55v-498.96c0-39.366-31.918-71.28-71.284-71.28z" p-id="15111" fill="#1afa29"></path></svg>