<?xml version="1.0" standalone="no"?><!DOCTYPE svg PUBLIC "-//W3C//DTD SVG 1.1//EN" "http://www.w3.org/Graphics/SVG/1.1/DTD/svg11.dtd"><svg t="1586243873930" class="icon" viewBox="0 0 1024 1024" version="1.1" xmlns="http://www.w3.org/2000/svg" p-id="4093" xmlns:xlink="http://www.w3.org/1999/xlink" width="64" height="64"><defs><style type="text/css"></style></defs><path d="M512 1024C230.4 1024 0 793.6 0 512S230.4 0 512 0s512 230.4 512 512-230.4 512-512 512z m0-960C264.533333 64 64 264.533333 64 512s200.533333 448 448 448 448-200.533333 448-448S759.466667 64 512 64z" fill="#191919" p-id="4094"></path><path d="M494.933333 174.933333v354.133334h354.133334" fill="#FFFFFF" p-id="4095"></path><path d="M849.066667 561.066667H462.933333V174.933333c0-17.066667 14.933333-32 32-32s32 14.933333 32 32v322.133334h322.133334c17.066667 0 32 14.933333 32 32s-14.933333 32-32 32z" fill="#191919" p-id="4096"></path></svg>