<?xml version="1.0" standalone="no"?><!DOCTYPE svg PUBLIC "-//W3C//DTD SVG 1.1//EN" "http://www.w3.org/Graphics/SVG/1.1/DTD/svg11.dtd"><svg t="1586244207522" class="icon" viewBox="0 0 1024 1024" version="1.1" xmlns="http://www.w3.org/2000/svg" p-id="4844" xmlns:xlink="http://www.w3.org/1999/xlink" width="64" height="64"><defs><style type="text/css"></style></defs><path d="M1006.08 498.688c-88.064-192.512-282.112-316.928-493.568-316.928S106.496 306.176 18.432 498.688c-3.584 8.192-3.584 17.408 0 25.6 88.064 192.512 282.112 316.928 493.568 316.928s405.504-124.416 493.568-316.928c4.096-8.192 4.096-17.408 0.512-25.6zM512 779.776c-183.296 0-351.232-104.96-431.616-268.288C161.28 348.16 329.216 243.2 512 243.2c183.296 0 351.232 104.96 431.616 268.288-80.384 163.84-248.32 268.288-431.616 268.288z" p-id="4845"></path><path d="M512 358.4c-84.48 0-153.088 68.608-153.088 153.088s68.608 153.088 153.088 153.088 153.088-68.608 153.088-153.088S596.48 358.4 512 358.4z m0 244.736c-50.688 0-91.648-40.96-91.648-91.648 0-50.688 40.96-91.648 91.648-91.648s92.16 40.96 92.16 91.648c0 50.688-41.472 91.648-92.16 91.648z" p-id="4846"></path></svg>